<svg width="32" height="32" viewBox="0 0 32 32" fill="none" xmlns="http://www.w3.org/2000/svg">
<g clip-path="url(#clip0_1001_1171)">
<path d="M17.3333 0C13.664 0 10.7043 2.91582 10.7043 6.53061V7.83673H5.46324L5.40109 8.40816L2.74949 31.2653L2.66663 32H32L31.9171 31.2653L29.2655 8.40816L29.2034 7.83673H23.9623V6.53061C23.9623 2.91582 21.0025 0 17.3333 0ZM17.3333 1.30612C20.293 1.30612 22.6365 3.6148 22.6365 6.53061V7.83673H12.0301V6.53061C12.0301 3.6148 14.3735 1.30612 17.3333 1.30612ZM6.66474 9.14286H10.7043V10.6327C10.3081 10.8597 10.0414 11.273 10.0414 11.7551C10.0414 12.477 10.6344 13.0612 11.3672 13.0612C12.1 13.0612 12.693 12.477 12.693 11.7551C12.693 11.273 12.4263 10.8597 12.0301 10.6327V9.14286H22.6365V10.6327C22.2403 10.8597 21.9736 11.273 21.9736 11.7551C21.9736 12.477 22.5666 13.0612 23.2994 13.0612C24.0322 13.0612 24.6252 12.477 24.6252 11.7551C24.6252 11.273 24.3585 10.8597 23.9623 10.6327V9.14286H28.0018L30.5084 30.6939H4.15815L6.66474 9.14286Z" fill="#282828"/>
<g clip-path="url(#clip1_1001_1171)">
<circle cx="8.66667" cy="13.3333" r="8.66667" fill="#339933"/>
<path d="M6.06306 15.3335V10.1335L6.51906 10.6055H4.87906V9.7335H7.10306V15.3335H6.06306ZM8.14194 15.3335V14.6375L10.3659 12.5255C10.5526 12.3495 10.6913 12.1948 10.7819 12.0615C10.8726 11.9282 10.9313 11.8055 10.9579 11.6935C10.9899 11.5762 11.0059 11.4668 11.0059 11.3655C11.0059 11.1095 10.9179 10.9122 10.7419 10.7735C10.5659 10.6295 10.3073 10.5575 9.96594 10.5575C9.69394 10.5575 9.44594 10.6055 9.22194 10.7015C9.00327 10.7975 8.81394 10.9442 8.65394 11.1415L7.92594 10.5815C8.14461 10.2882 8.43794 10.0615 8.80594 9.9015C9.17927 9.73616 9.59527 9.6535 10.0539 9.6535C10.4593 9.6535 10.8113 9.72016 11.1099 9.8535C11.4139 9.9815 11.6459 10.1655 11.8059 10.4055C11.9713 10.6455 12.0539 10.9308 12.0539 11.2615C12.0539 11.4428 12.0299 11.6242 11.9819 11.8055C11.9339 11.9815 11.8433 12.1682 11.7099 12.3655C11.5766 12.5628 11.3819 12.7842 11.1259 13.0295L9.21394 14.8455L8.99794 14.4535H12.2699V15.3335H8.14194Z" fill="white"/>
</g>
</g>
<defs>
<clipPath id="clip0_1001_1171">
<rect width="32" height="32" fill="white"/>
</clipPath>
<clipPath id="clip1_1001_1171">
<rect width="17.3333" height="17.3333" fill="white" transform="translate(0 4.66666)"/>
</clipPath>
</defs>
</svg>
