<svg width="360" height="800" viewBox="0 0 360 800" fill="none" xmlns="http://www.w3.org/2000/svg">
<rect width="360" height="800" fill="black" fill-opacity="0.1"/>
<rect x="138" width="222" height="800" fill="white"/>
<path d="M171.89 118V105.4H173.366L179.018 114.922H178.226L183.806 105.4H185.282L185.3 118H183.572L183.554 108.118H183.968L179 116.47H178.172L173.168 108.118H173.618V118H171.89ZM194.751 118V115.984L194.661 115.606V112.168C194.661 111.436 194.445 110.872 194.013 110.476C193.593 110.068 192.957 109.864 192.105 109.864C191.541 109.864 190.989 109.96 190.449 110.152C189.909 110.332 189.453 110.578 189.081 110.89L188.361 109.594C188.853 109.198 189.441 108.898 190.125 108.694C190.821 108.478 191.547 108.37 192.303 108.37C193.611 108.37 194.619 108.688 195.327 109.324C196.035 109.96 196.389 110.932 196.389 112.24V118H194.751ZM191.619 118.108C190.911 118.108 190.287 117.988 189.747 117.748C189.219 117.508 188.811 117.178 188.523 116.758C188.235 116.326 188.091 115.84 188.091 115.3C188.091 114.784 188.211 114.316 188.451 113.896C188.703 113.476 189.105 113.14 189.657 112.888C190.221 112.636 190.977 112.51 191.925 112.51H194.949V113.752H191.997C191.133 113.752 190.551 113.896 190.251 114.184C189.951 114.472 189.801 114.82 189.801 115.228C189.801 115.696 189.987 116.074 190.359 116.362C190.731 116.638 191.247 116.776 191.907 116.776C192.555 116.776 193.119 116.632 193.599 116.344C194.091 116.056 194.445 115.636 194.661 115.084L195.003 116.272C194.775 116.836 194.373 117.286 193.797 117.622C193.221 117.946 192.495 118.108 191.619 118.108ZM199.587 118V108.46H201.315V118H199.587ZM200.451 106.624C200.115 106.624 199.833 106.516 199.605 106.3C199.389 106.084 199.281 105.82 199.281 105.508C199.281 105.184 199.389 104.914 199.605 104.698C199.833 104.482 200.115 104.374 200.451 104.374C200.787 104.374 201.063 104.482 201.279 104.698C201.507 104.902 201.621 105.16 201.621 105.472C201.621 105.796 201.513 106.072 201.297 106.3C201.081 106.516 200.799 106.624 200.451 106.624ZM209.709 108.37C210.489 108.37 211.173 108.52 211.761 108.82C212.361 109.12 212.829 109.576 213.165 110.188C213.501 110.8 213.669 111.574 213.669 112.51V118H211.941V112.708C211.941 111.784 211.713 111.088 211.257 110.62C210.813 110.152 210.183 109.918 209.367 109.918C208.755 109.918 208.221 110.038 207.765 110.278C207.309 110.518 206.955 110.872 206.703 111.34C206.463 111.808 206.343 112.39 206.343 113.086V118H204.615V108.46H206.271V111.034L206.001 110.35C206.313 109.726 206.793 109.24 207.441 108.892C208.089 108.544 208.845 108.37 209.709 108.37ZM221.953 118V105.4H226.867C227.971 105.4 228.913 105.574 229.693 105.922C230.473 106.27 231.073 106.774 231.493 107.434C231.913 108.094 232.123 108.88 232.123 109.792C232.123 110.704 231.913 111.49 231.493 112.15C231.073 112.798 230.473 113.302 229.693 113.662C228.913 114.01 227.971 114.184 226.867 114.184H222.943L223.753 113.338V118H221.953ZM223.753 113.518L222.943 112.618H226.813C227.965 112.618 228.835 112.372 229.423 111.88C230.023 111.388 230.323 110.692 230.323 109.792C230.323 108.892 230.023 108.196 229.423 107.704C228.835 107.212 227.965 106.966 226.813 106.966H222.943L223.753 106.066V113.518ZM240.349 118V115.984L240.259 115.606V112.168C240.259 111.436 240.043 110.872 239.611 110.476C239.191 110.068 238.555 109.864 237.703 109.864C237.139 109.864 236.587 109.96 236.047 110.152C235.507 110.332 235.051 110.578 234.679 110.89L233.959 109.594C234.451 109.198 235.039 108.898 235.723 108.694C236.419 108.478 237.145 108.37 237.901 108.37C239.209 108.37 240.217 108.688 240.925 109.324C241.633 109.96 241.987 110.932 241.987 112.24V118H240.349ZM237.217 118.108C236.509 118.108 235.885 117.988 235.345 117.748C234.817 117.508 234.409 117.178 234.121 116.758C233.833 116.326 233.689 115.84 233.689 115.3C233.689 114.784 233.809 114.316 234.049 113.896C234.301 113.476 234.703 113.14 235.255 112.888C235.819 112.636 236.575 112.51 237.523 112.51H240.547V113.752H237.595C236.731 113.752 236.149 113.896 235.849 114.184C235.549 114.472 235.399 114.82 235.399 115.228C235.399 115.696 235.585 116.074 235.957 116.362C236.329 116.638 236.845 116.776 237.505 116.776C238.153 116.776 238.717 116.632 239.197 116.344C239.689 116.056 240.043 115.636 240.259 115.084L240.601 116.272C240.373 116.836 239.971 117.286 239.395 117.622C238.819 117.946 238.093 118.108 237.217 118.108ZM249.361 121.6C248.485 121.6 247.633 121.474 246.805 121.222C245.989 120.982 245.323 120.634 244.807 120.178L245.635 118.846C246.079 119.23 246.625 119.53 247.273 119.746C247.921 119.974 248.599 120.088 249.307 120.088C250.435 120.088 251.263 119.824 251.791 119.296C252.319 118.768 252.583 117.964 252.583 116.884V114.868L252.763 112.978L252.673 111.07V108.46H254.311V116.704C254.311 118.384 253.891 119.62 253.051 120.412C252.211 121.204 250.981 121.6 249.361 121.6ZM249.145 117.604C248.221 117.604 247.393 117.412 246.661 117.028C245.941 116.632 245.365 116.086 244.933 115.39C244.513 114.694 244.303 113.89 244.303 112.978C244.303 112.054 244.513 111.25 244.933 110.566C245.365 109.87 245.941 109.33 246.661 108.946C247.393 108.562 248.221 108.37 249.145 108.37C249.961 108.37 250.705 108.538 251.377 108.874C252.049 109.198 252.583 109.702 252.979 110.386C253.387 111.07 253.591 111.934 253.591 112.978C253.591 114.01 253.387 114.868 252.979 115.552C252.583 116.236 252.049 116.752 251.377 117.1C250.705 117.436 249.961 117.604 249.145 117.604ZM249.343 116.092C249.979 116.092 250.543 115.96 251.035 115.696C251.527 115.432 251.911 115.066 252.187 114.598C252.475 114.13 252.619 113.59 252.619 112.978C252.619 112.366 252.475 111.826 252.187 111.358C251.911 110.89 251.527 110.53 251.035 110.278C250.543 110.014 249.979 109.882 249.343 109.882C248.707 109.882 248.137 110.014 247.633 110.278C247.141 110.53 246.751 110.89 246.463 111.358C246.187 111.826 246.049 112.366 246.049 112.978C246.049 113.59 246.187 114.13 246.463 114.598C246.751 115.066 247.141 115.432 247.633 115.696C248.137 115.96 248.707 116.092 249.343 116.092ZM261.861 118.108C260.841 118.108 259.941 117.898 259.161 117.478C258.393 117.058 257.793 116.482 257.361 115.75C256.941 115.018 256.731 114.178 256.731 113.23C256.731 112.282 256.935 111.442 257.343 110.71C257.763 109.978 258.333 109.408 259.053 109C259.785 108.58 260.607 108.37 261.519 108.37C262.443 108.37 263.259 108.574 263.967 108.982C264.675 109.39 265.227 109.966 265.623 110.71C266.031 111.442 266.235 112.3 266.235 113.284C266.235 113.356 266.229 113.44 266.217 113.536C266.217 113.632 266.211 113.722 266.199 113.806H258.081V112.564H265.299L264.597 112.996C264.609 112.384 264.483 111.838 264.219 111.358C263.955 110.878 263.589 110.506 263.121 110.242C262.665 109.966 262.131 109.828 261.519 109.828C260.919 109.828 260.385 109.966 259.917 110.242C259.449 110.506 259.083 110.884 258.819 111.376C258.555 111.856 258.423 112.408 258.423 113.032V113.32C258.423 113.956 258.567 114.526 258.855 115.03C259.155 115.522 259.569 115.906 260.097 116.182C260.625 116.458 261.231 116.596 261.915 116.596C262.479 116.596 262.989 116.5 263.445 116.308C263.913 116.116 264.321 115.828 264.669 115.444L265.623 116.56C265.191 117.064 264.651 117.448 264.003 117.712C263.367 117.976 262.653 118.108 261.861 118.108Z" fill="#282828"/>
<path d="M177.524 173.144C176.564 173.144 175.676 172.988 174.86 172.676C174.056 172.352 173.354 171.902 172.754 171.326C172.166 170.738 171.704 170.054 171.368 169.274C171.032 168.494 170.864 167.636 170.864 166.7C170.864 165.764 171.032 164.906 171.368 164.126C171.704 163.346 172.172 162.668 172.772 162.092C173.372 161.504 174.074 161.054 174.878 160.742C175.694 160.418 176.582 160.256 177.542 160.256C178.514 160.256 179.408 160.424 180.224 160.76C181.052 161.084 181.754 161.57 182.33 162.218L181.16 163.352C180.68 162.848 180.14 162.476 179.54 162.236C178.94 161.984 178.298 161.858 177.614 161.858C176.906 161.858 176.246 161.978 175.634 162.218C175.034 162.458 174.512 162.794 174.068 163.226C173.624 163.658 173.276 164.174 173.024 164.774C172.784 165.362 172.664 166.004 172.664 166.7C172.664 167.396 172.784 168.044 173.024 168.644C173.276 169.232 173.624 169.742 174.068 170.174C174.512 170.606 175.034 170.942 175.634 171.182C176.246 171.422 176.906 171.542 177.614 171.542C178.298 171.542 178.94 171.422 179.54 171.182C180.14 170.93 180.68 170.546 181.16 170.03L182.33 171.164C181.754 171.812 181.052 172.304 180.224 172.64C179.408 172.976 178.508 173.144 177.524 173.144ZM190.445 173V170.984L190.355 170.606V167.168C190.355 166.436 190.139 165.872 189.707 165.476C189.287 165.068 188.651 164.864 187.799 164.864C187.235 164.864 186.683 164.96 186.143 165.152C185.603 165.332 185.147 165.578 184.775 165.89L184.055 164.594C184.547 164.198 185.135 163.898 185.819 163.694C186.515 163.478 187.241 163.37 187.997 163.37C189.305 163.37 190.313 163.688 191.021 164.324C191.729 164.96 192.083 165.932 192.083 167.24V173H190.445ZM187.313 173.108C186.605 173.108 185.981 172.988 185.441 172.748C184.913 172.508 184.505 172.178 184.217 171.758C183.929 171.326 183.785 170.84 183.785 170.3C183.785 169.784 183.905 169.316 184.145 168.896C184.397 168.476 184.799 168.14 185.351 167.888C185.915 167.636 186.671 167.51 187.619 167.51H190.643V168.752H187.691C186.827 168.752 186.245 168.896 185.945 169.184C185.645 169.472 185.495 169.82 185.495 170.228C185.495 170.696 185.681 171.074 186.053 171.362C186.425 171.638 186.941 171.776 187.601 171.776C188.249 171.776 188.813 171.632 189.293 171.344C189.785 171.056 190.139 170.636 190.355 170.084L190.697 171.272C190.469 171.836 190.067 172.286 189.491 172.622C188.915 172.946 188.189 173.108 187.313 173.108ZM198.557 173.108C197.597 173.108 196.853 172.85 196.325 172.334C195.797 171.818 195.533 171.08 195.533 170.12V161.372H197.261V170.048C197.261 170.564 197.387 170.96 197.639 171.236C197.903 171.512 198.275 171.65 198.755 171.65C199.295 171.65 199.745 171.5 200.105 171.2L200.645 172.442C200.381 172.67 200.063 172.838 199.691 172.946C199.331 173.054 198.953 173.108 198.557 173.108ZM193.913 164.882V163.46H199.997V164.882H193.913ZM206.665 173.108C205.645 173.108 204.745 172.898 203.965 172.478C203.197 172.058 202.597 171.482 202.165 170.75C201.745 170.018 201.535 169.178 201.535 168.23C201.535 167.282 201.739 166.442 202.147 165.71C202.567 164.978 203.137 164.408 203.857 164C204.589 163.58 205.411 163.37 206.323 163.37C207.247 163.37 208.063 163.574 208.771 163.982C209.479 164.39 210.031 164.966 210.427 165.71C210.835 166.442 211.039 167.3 211.039 168.284C211.039 168.356 211.033 168.44 211.021 168.536C211.021 168.632 211.015 168.722 211.003 168.806H202.885V167.564H210.103L209.401 167.996C209.413 167.384 209.287 166.838 209.023 166.358C208.759 165.878 208.393 165.506 207.925 165.242C207.469 164.966 206.935 164.828 206.323 164.828C205.723 164.828 205.189 164.966 204.721 165.242C204.253 165.506 203.887 165.884 203.623 166.376C203.359 166.856 203.227 167.408 203.227 168.032V168.32C203.227 168.956 203.371 169.526 203.659 170.03C203.959 170.522 204.373 170.906 204.901 171.182C205.429 171.458 206.035 171.596 206.719 171.596C207.283 171.596 207.793 171.5 208.249 171.308C208.717 171.116 209.125 170.828 209.473 170.444L210.427 171.56C209.995 172.064 209.455 172.448 208.807 172.712C208.171 172.976 207.457 173.108 206.665 173.108ZM217.615 176.6C216.739 176.6 215.887 176.474 215.059 176.222C214.243 175.982 213.577 175.634 213.061 175.178L213.889 173.846C214.333 174.23 214.879 174.53 215.527 174.746C216.175 174.974 216.853 175.088 217.561 175.088C218.689 175.088 219.517 174.824 220.045 174.296C220.573 173.768 220.837 172.964 220.837 171.884V169.868L221.017 167.978L220.927 166.07V163.46H222.565V171.704C222.565 173.384 222.145 174.62 221.305 175.412C220.465 176.204 219.235 176.6 217.615 176.6ZM217.399 172.604C216.475 172.604 215.647 172.412 214.915 172.028C214.195 171.632 213.619 171.086 213.187 170.39C212.767 169.694 212.557 168.89 212.557 167.978C212.557 167.054 212.767 166.25 213.187 165.566C213.619 164.87 214.195 164.33 214.915 163.946C215.647 163.562 216.475 163.37 217.399 163.37C218.215 163.37 218.959 163.538 219.631 163.874C220.303 164.198 220.837 164.702 221.233 165.386C221.641 166.07 221.845 166.934 221.845 167.978C221.845 169.01 221.641 169.868 221.233 170.552C220.837 171.236 220.303 171.752 219.631 172.1C218.959 172.436 218.215 172.604 217.399 172.604ZM217.597 171.092C218.233 171.092 218.797 170.96 219.289 170.696C219.781 170.432 220.165 170.066 220.441 169.598C220.729 169.13 220.873 168.59 220.873 167.978C220.873 167.366 220.729 166.826 220.441 166.358C220.165 165.89 219.781 165.53 219.289 165.278C218.797 165.014 218.233 164.882 217.597 164.882C216.961 164.882 216.391 165.014 215.887 165.278C215.395 165.53 215.005 165.89 214.717 166.358C214.441 166.826 214.303 167.366 214.303 167.978C214.303 168.59 214.441 169.13 214.717 169.598C215.005 170.066 215.395 170.432 215.887 170.696C216.391 170.96 216.961 171.092 217.597 171.092ZM229.953 173.108C228.993 173.108 228.141 172.898 227.397 172.478C226.653 172.058 226.065 171.482 225.633 170.75C225.201 170.006 224.985 169.166 224.985 168.23C224.985 167.282 225.201 166.442 225.633 165.71C226.065 164.978 226.653 164.408 227.397 164C228.141 163.58 228.993 163.37 229.953 163.37C230.901 163.37 231.747 163.58 232.491 164C233.247 164.408 233.835 164.978 234.255 165.71C234.687 166.43 234.903 167.27 234.903 168.23C234.903 169.178 234.687 170.018 234.255 170.75C233.835 171.482 233.247 172.058 232.491 172.478C231.747 172.898 230.901 173.108 229.953 173.108ZM229.953 171.596C230.565 171.596 231.111 171.458 231.591 171.182C232.083 170.906 232.467 170.516 232.743 170.012C233.019 169.496 233.157 168.902 233.157 168.23C233.157 167.546 233.019 166.958 232.743 166.466C232.467 165.962 232.083 165.572 231.591 165.296C231.111 165.02 230.565 164.882 229.953 164.882C229.341 164.882 228.795 165.02 228.315 165.296C227.835 165.572 227.451 165.962 227.163 166.466C226.875 166.958 226.731 167.546 226.731 168.23C226.731 168.902 226.875 169.496 227.163 170.012C227.451 170.516 227.835 170.906 228.315 171.182C228.795 171.458 229.341 171.596 229.953 171.596ZM237.292 173V163.46H238.948V166.052L238.786 165.404C239.05 164.744 239.494 164.24 240.118 163.892C240.742 163.544 241.51 163.37 242.422 163.37V165.044C242.35 165.032 242.278 165.026 242.206 165.026C242.146 165.026 242.086 165.026 242.026 165.026C241.102 165.026 240.37 165.302 239.83 165.854C239.29 166.406 239.02 167.204 239.02 168.248V173H237.292ZM244.552 173V163.46H246.28V173H244.552ZM245.416 161.624C245.08 161.624 244.798 161.516 244.57 161.3C244.354 161.084 244.246 160.82 244.246 160.508C244.246 160.184 244.354 159.914 244.57 159.698C244.798 159.482 245.08 159.374 245.416 159.374C245.752 159.374 246.028 159.482 246.244 159.698C246.472 159.902 246.586 160.16 246.586 160.472C246.586 160.796 246.478 161.072 246.262 161.3C246.046 161.516 245.764 161.624 245.416 161.624ZM253.827 173.108C252.807 173.108 251.907 172.898 251.127 172.478C250.359 172.058 249.759 171.482 249.327 170.75C248.907 170.018 248.697 169.178 248.697 168.23C248.697 167.282 248.901 166.442 249.309 165.71C249.729 164.978 250.299 164.408 251.019 164C251.751 163.58 252.573 163.37 253.485 163.37C254.409 163.37 255.225 163.574 255.933 163.982C256.641 164.39 257.193 164.966 257.589 165.71C257.997 166.442 258.201 167.3 258.201 168.284C258.201 168.356 258.195 168.44 258.183 168.536C258.183 168.632 258.177 168.722 258.165 168.806H250.047V167.564H257.265L256.563 167.996C256.575 167.384 256.449 166.838 256.185 166.358C255.921 165.878 255.555 165.506 255.087 165.242C254.631 164.966 254.097 164.828 253.485 164.828C252.885 164.828 252.351 164.966 251.883 165.242C251.415 165.506 251.049 165.884 250.785 166.376C250.521 166.856 250.389 167.408 250.389 168.032V168.32C250.389 168.956 250.533 169.526 250.821 170.03C251.121 170.522 251.535 170.906 252.063 171.182C252.591 171.458 253.197 171.596 253.881 171.596C254.445 171.596 254.955 171.5 255.411 171.308C255.879 171.116 256.287 170.828 256.635 170.444L257.589 171.56C257.157 172.064 256.617 172.448 255.969 172.712C255.333 172.976 254.619 173.108 253.827 173.108ZM263.337 173.108C262.545 173.108 261.789 173 261.069 172.784C260.361 172.568 259.803 172.304 259.395 171.992L260.115 170.624C260.523 170.9 261.027 171.134 261.627 171.326C262.227 171.518 262.839 171.614 263.463 171.614C264.267 171.614 264.843 171.5 265.191 171.272C265.551 171.044 265.731 170.726 265.731 170.318C265.731 170.018 265.623 169.784 265.407 169.616C265.191 169.448 264.903 169.322 264.543 169.238C264.195 169.154 263.805 169.082 263.373 169.022C262.941 168.95 262.509 168.866 262.077 168.77C261.645 168.662 261.249 168.518 260.889 168.338C260.529 168.146 260.241 167.888 260.025 167.564C259.809 167.228 259.701 166.784 259.701 166.232C259.701 165.656 259.863 165.152 260.187 164.72C260.511 164.288 260.967 163.958 261.555 163.73C262.155 163.49 262.863 163.37 263.679 163.37C264.303 163.37 264.933 163.448 265.569 163.604C266.217 163.748 266.745 163.958 267.153 164.234L266.415 165.602C265.983 165.314 265.533 165.116 265.065 165.008C264.597 164.9 264.129 164.846 263.661 164.846C262.905 164.846 262.341 164.972 261.969 165.224C261.597 165.464 261.411 165.776 261.411 166.16C261.411 166.484 261.519 166.736 261.735 166.916C261.963 167.084 262.251 167.216 262.599 167.312C262.959 167.408 263.355 167.492 263.787 167.564C264.219 167.624 264.651 167.708 265.083 167.816C265.515 167.912 265.905 168.05 266.253 168.23C266.613 168.41 266.901 168.662 267.117 168.986C267.345 169.31 267.459 169.742 267.459 170.282C267.459 170.858 267.291 171.356 266.955 171.776C266.619 172.196 266.145 172.526 265.533 172.766C264.921 172.994 264.189 173.108 263.337 173.108Z" fill="#282828"/>
<path d="M169.982 228L175.688 215.4H177.47L183.194 228H181.304L176.21 216.408H176.93L171.836 228H169.982ZM172.412 224.85L172.898 223.41H179.99L180.512 224.85H172.412ZM184.822 228V214.644H186.55V228H184.822ZM189.849 228V214.644H191.577V228H189.849ZM204.768 228.108C203.976 228.108 203.25 227.928 202.59 227.568C201.942 227.196 201.42 226.65 201.024 225.93C200.64 225.21 200.448 224.31 200.448 223.23C200.448 222.15 200.634 221.25 201.006 220.53C201.39 219.81 201.906 219.27 202.554 218.91C203.214 218.55 203.952 218.37 204.768 218.37C205.704 218.37 206.532 218.574 207.252 218.982C207.972 219.39 208.542 219.96 208.962 220.692C209.382 221.412 209.592 222.258 209.592 223.23C209.592 224.202 209.382 225.054 208.962 225.786C208.542 226.518 207.972 227.088 207.252 227.496C206.532 227.904 205.704 228.108 204.768 228.108ZM199.71 231.492V218.46H201.366V221.034L201.258 223.248L201.438 225.462V231.492H199.71ZM204.624 226.596C205.236 226.596 205.782 226.458 206.262 226.182C206.754 225.906 207.138 225.516 207.414 225.012C207.702 224.496 207.846 223.902 207.846 223.23C207.846 222.546 207.702 221.958 207.414 221.466C207.138 220.962 206.754 220.572 206.262 220.296C205.782 220.02 205.236 219.882 204.624 219.882C204.024 219.882 203.478 220.02 202.986 220.296C202.506 220.572 202.122 220.962 201.834 221.466C201.558 221.958 201.42 222.546 201.42 223.23C201.42 223.902 201.558 224.496 201.834 225.012C202.122 225.516 202.506 225.906 202.986 226.182C203.478 226.458 204.024 226.596 204.624 226.596ZM211.98 228V218.46H213.636V221.052L213.474 220.404C213.738 219.744 214.182 219.24 214.806 218.892C215.43 218.544 216.198 218.37 217.11 218.37V220.044C217.038 220.032 216.966 220.026 216.894 220.026C216.834 220.026 216.774 220.026 216.714 220.026C215.79 220.026 215.058 220.302 214.518 220.854C213.978 221.406 213.708 222.204 213.708 223.248V228H211.98ZM223.238 228.108C222.278 228.108 221.426 227.898 220.682 227.478C219.938 227.058 219.35 226.482 218.918 225.75C218.486 225.006 218.27 224.166 218.27 223.23C218.27 222.282 218.486 221.442 218.918 220.71C219.35 219.978 219.938 219.408 220.682 219C221.426 218.58 222.278 218.37 223.238 218.37C224.186 218.37 225.032 218.58 225.776 219C226.532 219.408 227.12 219.978 227.54 220.71C227.972 221.43 228.188 222.27 228.188 223.23C228.188 224.178 227.972 225.018 227.54 225.75C227.12 226.482 226.532 227.058 225.776 227.478C225.032 227.898 224.186 228.108 223.238 228.108ZM223.238 226.596C223.85 226.596 224.396 226.458 224.876 226.182C225.368 225.906 225.752 225.516 226.028 225.012C226.304 224.496 226.442 223.902 226.442 223.23C226.442 222.546 226.304 221.958 226.028 221.466C225.752 220.962 225.368 220.572 224.876 220.296C224.396 220.02 223.85 219.882 223.238 219.882C222.626 219.882 222.08 220.02 221.6 220.296C221.12 220.572 220.736 220.962 220.448 221.466C220.16 221.958 220.016 222.546 220.016 223.23C220.016 223.902 220.16 224.496 220.448 225.012C220.736 225.516 221.12 225.906 221.6 226.182C222.08 226.458 222.626 226.596 223.238 226.596ZM234.519 228.108C233.595 228.108 232.767 227.904 232.035 227.496C231.315 227.088 230.745 226.518 230.325 225.786C229.905 225.054 229.695 224.202 229.695 223.23C229.695 222.258 229.905 221.412 230.325 220.692C230.745 219.96 231.315 219.39 232.035 218.982C232.767 218.574 233.595 218.37 234.519 218.37C235.323 218.37 236.049 218.55 236.697 218.91C237.345 219.27 237.861 219.81 238.245 220.53C238.641 221.25 238.839 222.15 238.839 223.23C238.839 224.31 238.647 225.21 238.263 225.93C237.891 226.65 237.381 227.196 236.733 227.568C236.085 227.928 235.347 228.108 234.519 228.108ZM234.663 226.596C235.263 226.596 235.803 226.458 236.283 226.182C236.775 225.906 237.159 225.516 237.435 225.012C237.723 224.496 237.867 223.902 237.867 223.23C237.867 222.546 237.723 221.958 237.435 221.466C237.159 220.962 236.775 220.572 236.283 220.296C235.803 220.02 235.263 219.882 234.663 219.882C234.051 219.882 233.505 220.02 233.025 220.296C232.545 220.572 232.161 220.962 231.873 221.466C231.585 221.958 231.441 222.546 231.441 223.23C231.441 223.902 231.585 224.496 231.873 225.012C232.161 225.516 232.545 225.906 233.025 226.182C233.505 226.458 234.051 226.596 234.663 226.596ZM237.921 228V225.426L238.029 223.212L237.849 220.998V214.644H239.577V228H237.921ZM246.861 228.108C246.045 228.108 245.325 227.958 244.701 227.658C244.089 227.358 243.609 226.902 243.261 226.29C242.925 225.666 242.757 224.886 242.757 223.95V218.46H244.485V223.752C244.485 224.688 244.707 225.39 245.151 225.858C245.607 226.326 246.243 226.56 247.059 226.56C247.659 226.56 248.181 226.44 248.625 226.2C249.069 225.948 249.411 225.588 249.651 225.12C249.891 224.64 250.011 224.064 250.011 223.392V218.46H251.739V228H250.101V225.426L250.371 226.11C250.059 226.746 249.591 227.238 248.967 227.586C248.343 227.934 247.641 228.108 246.861 228.108ZM259.187 228.108C258.215 228.108 257.345 227.898 256.577 227.478C255.821 227.058 255.227 226.482 254.795 225.75C254.363 225.018 254.147 224.178 254.147 223.23C254.147 222.282 254.363 221.442 254.795 220.71C255.227 219.978 255.821 219.408 256.577 219C257.345 218.58 258.215 218.37 259.187 218.37C260.051 218.37 260.819 218.544 261.491 218.892C262.175 219.228 262.703 219.732 263.075 220.404L261.761 221.25C261.449 220.782 261.065 220.44 260.609 220.224C260.165 219.996 259.685 219.882 259.169 219.882C258.545 219.882 257.987 220.02 257.495 220.296C257.003 220.572 256.613 220.962 256.325 221.466C256.037 221.958 255.893 222.546 255.893 223.23C255.893 223.914 256.037 224.508 256.325 225.012C256.613 225.516 257.003 225.906 257.495 226.182C257.987 226.458 258.545 226.596 259.169 226.596C259.685 226.596 260.165 226.488 260.609 226.272C261.065 226.044 261.449 225.696 261.761 225.228L263.075 226.056C262.703 226.716 262.175 227.226 261.491 227.586C260.819 227.934 260.051 228.108 259.187 228.108ZM268.711 228.108C267.751 228.108 267.007 227.85 266.479 227.334C265.951 226.818 265.687 226.08 265.687 225.12V216.372H267.415V225.048C267.415 225.564 267.541 225.96 267.793 226.236C268.057 226.512 268.429 226.65 268.909 226.65C269.449 226.65 269.899 226.5 270.259 226.2L270.799 227.442C270.535 227.67 270.217 227.838 269.845 227.946C269.485 228.054 269.107 228.108 268.711 228.108ZM264.067 219.882V218.46H270.151V219.882H264.067ZM275.624 228.108C274.832 228.108 274.076 228 273.356 227.784C272.648 227.568 272.09 227.304 271.682 226.992L272.402 225.624C272.81 225.9 273.314 226.134 273.914 226.326C274.514 226.518 275.126 226.614 275.75 226.614C276.554 226.614 277.13 226.5 277.478 226.272C277.838 226.044 278.018 225.726 278.018 225.318C278.018 225.018 277.91 224.784 277.694 224.616C277.478 224.448 277.19 224.322 276.83 224.238C276.482 224.154 276.092 224.082 275.66 224.022C275.228 223.95 274.796 223.866 274.364 223.77C273.932 223.662 273.536 223.518 273.176 223.338C272.816 223.146 272.528 222.888 272.312 222.564C272.096 222.228 271.988 221.784 271.988 221.232C271.988 220.656 272.15 220.152 272.474 219.72C272.798 219.288 273.254 218.958 273.842 218.73C274.442 218.49 275.15 218.37 275.966 218.37C276.59 218.37 277.22 218.448 277.856 218.604C278.504 218.748 279.032 218.958 279.44 219.234L278.702 220.602C278.27 220.314 277.82 220.116 277.352 220.008C276.884 219.9 276.416 219.846 275.948 219.846C275.192 219.846 274.628 219.972 274.256 220.224C273.884 220.464 273.698 220.776 273.698 221.16C273.698 221.484 273.806 221.736 274.022 221.916C274.25 222.084 274.538 222.216 274.886 222.312C275.246 222.408 275.642 222.492 276.074 222.564C276.506 222.624 276.938 222.708 277.37 222.816C277.802 222.912 278.192 223.05 278.54 223.23C278.9 223.41 279.188 223.662 279.404 223.986C279.632 224.31 279.746 224.742 279.746 225.282C279.746 225.858 279.578 226.356 279.242 226.776C278.906 227.196 278.432 227.526 277.82 227.766C277.208 227.994 276.476 228.108 275.624 228.108Z" fill="#282828"/>
<path d="M169.982 283L175.688 270.4H177.47L183.194 283H181.304L176.21 271.408H176.93L171.836 283H169.982ZM172.412 279.85L172.898 278.41H179.99L180.512 279.85H172.412ZM184.822 283V269.644H186.55V283H184.822ZM189.849 283V269.644H191.577V283H189.849ZM202.446 283.108C201.654 283.108 200.898 283 200.178 282.784C199.47 282.568 198.912 282.304 198.504 281.992L199.224 280.624C199.632 280.9 200.136 281.134 200.736 281.326C201.336 281.518 201.948 281.614 202.572 281.614C203.376 281.614 203.952 281.5 204.3 281.272C204.66 281.044 204.84 280.726 204.84 280.318C204.84 280.018 204.732 279.784 204.516 279.616C204.3 279.448 204.012 279.322 203.652 279.238C203.304 279.154 202.914 279.082 202.482 279.022C202.05 278.95 201.618 278.866 201.186 278.77C200.754 278.662 200.358 278.518 199.998 278.338C199.638 278.146 199.35 277.888 199.134 277.564C198.918 277.228 198.81 276.784 198.81 276.232C198.81 275.656 198.972 275.152 199.296 274.72C199.62 274.288 200.076 273.958 200.664 273.73C201.264 273.49 201.972 273.37 202.788 273.37C203.412 273.37 204.042 273.448 204.678 273.604C205.326 273.748 205.854 273.958 206.262 274.234L205.524 275.602C205.092 275.314 204.642 275.116 204.174 275.008C203.706 274.9 203.238 274.846 202.77 274.846C202.014 274.846 201.45 274.972 201.078 275.224C200.706 275.464 200.52 275.776 200.52 276.16C200.52 276.484 200.628 276.736 200.844 276.916C201.072 277.084 201.36 277.216 201.708 277.312C202.068 277.408 202.464 277.492 202.896 277.564C203.328 277.624 203.76 277.708 204.192 277.816C204.624 277.912 205.014 278.05 205.362 278.23C205.722 278.41 206.01 278.662 206.226 278.986C206.454 279.31 206.568 279.742 206.568 280.282C206.568 280.858 206.4 281.356 206.064 281.776C205.728 282.196 205.254 282.526 204.642 282.766C204.03 282.994 203.298 283.108 202.446 283.108ZM214.65 283V280.984L214.56 280.606V277.168C214.56 276.436 214.344 275.872 213.912 275.476C213.492 275.068 212.856 274.864 212.004 274.864C211.44 274.864 210.888 274.96 210.348 275.152C209.808 275.332 209.352 275.578 208.98 275.89L208.26 274.594C208.752 274.198 209.34 273.898 210.024 273.694C210.72 273.478 211.446 273.37 212.202 273.37C213.51 273.37 214.518 273.688 215.226 274.324C215.934 274.96 216.288 275.932 216.288 277.24V283H214.65ZM211.518 283.108C210.81 283.108 210.186 282.988 209.646 282.748C209.118 282.508 208.71 282.178 208.422 281.758C208.134 281.326 207.99 280.84 207.99 280.3C207.99 279.784 208.11 279.316 208.35 278.896C208.602 278.476 209.004 278.14 209.556 277.888C210.12 277.636 210.876 277.51 211.824 277.51H214.848V278.752H211.896C211.032 278.752 210.45 278.896 210.15 279.184C209.85 279.472 209.7 279.82 209.7 280.228C209.7 280.696 209.886 281.074 210.258 281.362C210.63 281.638 211.146 281.776 211.806 281.776C212.454 281.776 213.018 281.632 213.498 281.344C213.99 281.056 214.344 280.636 214.56 280.084L214.902 281.272C214.674 281.836 214.272 282.286 213.696 282.622C213.12 282.946 212.394 283.108 211.518 283.108ZM219.486 283V269.644H221.214V283H219.486ZM228.761 283.108C227.741 283.108 226.841 282.898 226.061 282.478C225.293 282.058 224.693 281.482 224.261 280.75C223.841 280.018 223.631 279.178 223.631 278.23C223.631 277.282 223.835 276.442 224.243 275.71C224.663 274.978 225.233 274.408 225.953 274C226.685 273.58 227.507 273.37 228.419 273.37C229.343 273.37 230.159 273.574 230.867 273.982C231.575 274.39 232.127 274.966 232.523 275.71C232.931 276.442 233.135 277.3 233.135 278.284C233.135 278.356 233.129 278.44 233.117 278.536C233.117 278.632 233.111 278.722 233.099 278.806H224.981V277.564H232.199L231.497 277.996C231.509 277.384 231.383 276.838 231.119 276.358C230.855 275.878 230.489 275.506 230.021 275.242C229.565 274.966 229.031 274.828 228.419 274.828C227.819 274.828 227.285 274.966 226.817 275.242C226.349 275.506 225.983 275.884 225.719 276.376C225.455 276.856 225.323 277.408 225.323 278.032V278.32C225.323 278.956 225.467 279.526 225.755 280.03C226.055 280.522 226.469 280.906 226.997 281.182C227.525 281.458 228.131 281.596 228.815 281.596C229.379 281.596 229.889 281.5 230.345 281.308C230.813 281.116 231.221 280.828 231.569 280.444L232.523 281.56C232.091 282.064 231.551 282.448 230.903 282.712C230.267 282.976 229.553 283.108 228.761 283.108ZM238.27 283.108C237.478 283.108 236.722 283 236.002 282.784C235.294 282.568 234.736 282.304 234.328 281.992L235.048 280.624C235.456 280.9 235.96 281.134 236.56 281.326C237.16 281.518 237.772 281.614 238.396 281.614C239.2 281.614 239.776 281.5 240.124 281.272C240.484 281.044 240.664 280.726 240.664 280.318C240.664 280.018 240.556 279.784 240.34 279.616C240.124 279.448 239.836 279.322 239.476 279.238C239.128 279.154 238.738 279.082 238.306 279.022C237.874 278.95 237.442 278.866 237.01 278.77C236.578 278.662 236.182 278.518 235.822 278.338C235.462 278.146 235.174 277.888 234.958 277.564C234.742 277.228 234.634 276.784 234.634 276.232C234.634 275.656 234.796 275.152 235.12 274.72C235.444 274.288 235.9 273.958 236.488 273.73C237.088 273.49 237.796 273.37 238.612 273.37C239.236 273.37 239.866 273.448 240.502 273.604C241.15 273.748 241.678 273.958 242.086 274.234L241.348 275.602C240.916 275.314 240.466 275.116 239.998 275.008C239.53 274.9 239.062 274.846 238.594 274.846C237.838 274.846 237.274 274.972 236.902 275.224C236.53 275.464 236.344 275.776 236.344 276.16C236.344 276.484 236.452 276.736 236.668 276.916C236.896 277.084 237.184 277.216 237.532 277.312C237.892 277.408 238.288 277.492 238.72 277.564C239.152 277.624 239.584 277.708 240.016 277.816C240.448 277.912 240.838 278.05 241.186 278.23C241.546 278.41 241.834 278.662 242.05 278.986C242.278 279.31 242.392 279.742 242.392 280.282C242.392 280.858 242.224 281.356 241.888 281.776C241.552 282.196 241.078 282.526 240.466 282.766C239.854 282.994 239.122 283.108 238.27 283.108Z" fill="#282828"/>
<path d="M329 23L307 45" stroke="#282828" stroke-width="3.66667" stroke-linecap="round" stroke-linejoin="round"/>
<path d="M307 23L329 45" stroke="#282828" stroke-width="3.66667" stroke-linecap="round" stroke-linejoin="round"/>
</svg>
